<mxfile host="app.diagrams.net" agent="Mozilla/5.0 (X11; Linux x86_64) AppleWebKit/537.36 (KHTML, like Gecko) Chrome/124.0.0.0 Safari/537.36" version="24.7.16">
  <diagram name="Page-1" id="jto-qtzXlHKbKDOFZij-">
    <mxGraphModel dx="2607" dy="1433" grid="1" gridSize="10" guides="1" tooltips="1" connect="1" arrows="1" fold="1" page="1" pageScale="1" pageWidth="850" pageHeight="1100" math="0" shadow="0">
      <root>
        <mxCell id="0" />
        <mxCell id="1" parent="0" />
        <mxCell id="kgj0ZtWSBMvPHDnNzbXX-134" style="edgeStyle=orthogonalEdgeStyle;rounded=0;orthogonalLoop=1;jettySize=auto;html=1;entryX=0;entryY=0.5;entryDx=0;entryDy=0;" parent="1" source="kgj0ZtWSBMvPHDnNzbXX-1" edge="1">
          <mxGeometry relative="1" as="geometry">
            <mxPoint x="1200" y="335" as="targetPoint" />
          </mxGeometry>
        </mxCell>
        <mxCell id="kgj0ZtWSBMvPHDnNzbXX-1" value="" style="rounded=0;whiteSpace=wrap;html=1;sketch=1;curveFitting=1;jiggle=2;dashed=1;opacity=60;fillColor=#f8cecc;strokeColor=#b85450;" parent="1" vertex="1">
          <mxGeometry x="820" y="280" width="240" height="110" as="geometry" />
        </mxCell>
        <mxCell id="kgj0ZtWSBMvPHDnNzbXX-2" value="" style="endArrow=none;html=1;rounded=0;" parent="1" edge="1">
          <mxGeometry width="50" height="50" relative="1" as="geometry">
            <mxPoint x="400" y="1070" as="sourcePoint" />
            <mxPoint x="400" y="20" as="targetPoint" />
          </mxGeometry>
        </mxCell>
        <mxCell id="kgj0ZtWSBMvPHDnNzbXX-3" value="" style="endArrow=none;html=1;rounded=0;" parent="1" edge="1">
          <mxGeometry width="50" height="50" relative="1" as="geometry">
            <mxPoint x="20" y="80" as="sourcePoint" />
            <mxPoint x="810" y="80" as="targetPoint" />
          </mxGeometry>
        </mxCell>
        <mxCell id="kgj0ZtWSBMvPHDnNzbXX-5" value="&lt;font style=&quot;font-size: 44px;&quot;&gt;Stack&lt;/font&gt;" style="text;html=1;align=center;verticalAlign=middle;whiteSpace=wrap;rounded=0;" parent="1" vertex="1">
          <mxGeometry x="70" y="20" width="330" height="60" as="geometry" />
        </mxCell>
        <mxCell id="kgj0ZtWSBMvPHDnNzbXX-6" value="&lt;span style=&quot;font-size: 44px;&quot;&gt;Heap&lt;/span&gt;" style="text;html=1;align=center;verticalAlign=middle;whiteSpace=wrap;rounded=0;" parent="1" vertex="1">
          <mxGeometry x="400" y="20" width="330" height="60" as="geometry" />
        </mxCell>
        <mxCell id="kgj0ZtWSBMvPHDnNzbXX-7" value="" style="endArrow=none;html=1;rounded=0;entryX=0.5;entryY=0;entryDx=0;entryDy=0;exitX=0.5;exitY=1;exitDx=0;exitDy=0;sketch=1;curveFitting=1;jiggle=2;dashed=1;opacity=60;fillColor=#f8cecc;strokeColor=#b85450;" parent="1" source="kgj0ZtWSBMvPHDnNzbXX-1" target="kgj0ZtWSBMvPHDnNzbXX-1" edge="1">
          <mxGeometry width="50" height="50" relative="1" as="geometry">
            <mxPoint x="920" y="360" as="sourcePoint" />
            <mxPoint x="970" y="310" as="targetPoint" />
          </mxGeometry>
        </mxCell>
        <mxCell id="kgj0ZtWSBMvPHDnNzbXX-9" value="&lt;font style=&quot;font-size: 20px;&quot;&gt;siguiente&lt;/font&gt;" style="text;html=1;align=center;verticalAlign=middle;whiteSpace=wrap;rounded=0;sketch=1;curveFitting=1;jiggle=2;dashed=1;opacity=60;fillColor=#f8cecc;strokeColor=#b85450;" parent="1" vertex="1">
          <mxGeometry x="960" y="320" width="80" height="30" as="geometry" />
        </mxCell>
        <mxCell id="kgj0ZtWSBMvPHDnNzbXX-32" value="" style="rounded=0;whiteSpace=wrap;html=1;" parent="1" vertex="1">
          <mxGeometry x="460" y="175" width="220" height="170" as="geometry" />
        </mxCell>
        <mxCell id="kgj0ZtWSBMvPHDnNzbXX-34" value="&lt;span style=&quot;font-size: 20px;&quot;&gt;cantidad&lt;/span&gt;" style="text;html=1;align=center;verticalAlign=middle;whiteSpace=wrap;rounded=0;strokeColor=default;" parent="1" vertex="1">
          <mxGeometry x="460" y="255" width="220" height="40" as="geometry" />
        </mxCell>
        <mxCell id="kgj0ZtWSBMvPHDnNzbXX-109" style="edgeStyle=orthogonalEdgeStyle;rounded=0;orthogonalLoop=1;jettySize=auto;html=1;entryX=0;entryY=0.5;entryDx=0;entryDy=0;" parent="1" source="kgj0ZtWSBMvPHDnNzbXX-36" target="kgj0ZtWSBMvPHDnNzbXX-84" edge="1">
          <mxGeometry relative="1" as="geometry" />
        </mxCell>
        <mxCell id="kgj0ZtWSBMvPHDnNzbXX-36" value="&lt;span style=&quot;font-size: 20px;&quot;&gt;principio&lt;/span&gt;" style="text;html=1;align=center;verticalAlign=middle;whiteSpace=wrap;rounded=0;strokeColor=default;" parent="1" vertex="1">
          <mxGeometry x="460" y="215" width="220" height="40" as="geometry" />
        </mxCell>
        <mxCell id="kgj0ZtWSBMvPHDnNzbXX-39" style="edgeStyle=orthogonalEdgeStyle;rounded=0;orthogonalLoop=1;jettySize=auto;html=1;" parent="1" source="kgj0ZtWSBMvPHDnNzbXX-38" target="kgj0ZtWSBMvPHDnNzbXX-40" edge="1">
          <mxGeometry relative="1" as="geometry">
            <mxPoint x="420" y="210" as="targetPoint" />
          </mxGeometry>
        </mxCell>
        <mxCell id="kgj0ZtWSBMvPHDnNzbXX-38" value="&lt;span style=&quot;font-size: 20px;&quot;&gt;Lista&lt;/span&gt;" style="rounded=0;whiteSpace=wrap;html=1;" parent="1" vertex="1">
          <mxGeometry x="120" y="230" width="120" height="60" as="geometry" />
        </mxCell>
        <mxCell id="kgj0ZtWSBMvPHDnNzbXX-40" value="" style="rounded=0;whiteSpace=wrap;html=1;" parent="1" vertex="1">
          <mxGeometry x="440" y="175" width="20" height="170" as="geometry" />
        </mxCell>
        <mxCell id="kgj0ZtWSBMvPHDnNzbXX-45" value="&lt;font style=&quot;font-size: 20px;&quot;&gt;Datos pokemon&lt;/font&gt;" style="rounded=0;whiteSpace=wrap;html=1;fillColor=#f8cecc;strokeColor=#b85450;sketch=1;curveFitting=1;jiggle=2;" parent="1" vertex="1">
          <mxGeometry x="560" y="815" width="160" height="30" as="geometry" />
        </mxCell>
        <mxCell id="kgj0ZtWSBMvPHDnNzbXX-84" value="" style="rounded=0;whiteSpace=wrap;html=1;sketch=1;curveFitting=1;jiggle=2;dashed=1;opacity=60;fillColor=#f8cecc;strokeColor=#b85450;" parent="1" vertex="1">
          <mxGeometry x="800" y="280" width="20" height="110" as="geometry" />
        </mxCell>
        <mxCell id="kgj0ZtWSBMvPHDnNzbXX-110" value="&lt;span style=&quot;font-size: 20px;&quot;&gt;Lista&lt;/span&gt;" style="rounded=0;whiteSpace=wrap;html=1;" parent="1" vertex="1">
          <mxGeometry x="440" y="130" width="240" height="45" as="geometry" />
        </mxCell>
        <mxCell id="kgj0ZtWSBMvPHDnNzbXX-111" value="&lt;span style=&quot;font-size: 20px;&quot;&gt;Nodo&lt;/span&gt;" style="rounded=0;whiteSpace=wrap;html=1;sketch=1;curveFitting=1;jiggle=2;dashed=1;opacity=60;fillColor=#f8cecc;strokeColor=#b85450;" parent="1" vertex="1">
          <mxGeometry x="800" y="240" width="260" height="40" as="geometry" />
        </mxCell>
        <mxCell id="yrJoEXE7CaM3pGtu8LgF-4" style="edgeStyle=orthogonalEdgeStyle;rounded=0;orthogonalLoop=1;jettySize=auto;html=1;entryX=1;entryY=0.5;entryDx=0;entryDy=0;fillColor=#f8cecc;strokeColor=#b85450;" parent="1" source="yrJoEXE7CaM3pGtu8LgF-1" target="kgj0ZtWSBMvPHDnNzbXX-45" edge="1">
          <mxGeometry relative="1" as="geometry">
            <mxPoint x="880" y="530" as="targetPoint" />
            <Array as="points">
              <mxPoint x="880" y="830" />
            </Array>
          </mxGeometry>
        </mxCell>
        <mxCell id="yrJoEXE7CaM3pGtu8LgF-1" value="&lt;span style=&quot;font-size: 20px;&quot;&gt;direcciÃ³n&lt;/span&gt;&lt;div&gt;&lt;span style=&quot;font-size: 20px;&quot;&gt;dato&lt;/span&gt;&lt;/div&gt;" style="rounded=0;whiteSpace=wrap;html=1;sketch=1;curveFitting=1;jiggle=2;dashed=1;opacity=60;fillColor=#f8cecc;strokeColor=#b85450;" parent="1" vertex="1">
          <mxGeometry x="820" y="280" width="120" height="110" as="geometry" />
        </mxCell>
        <mxCell id="yrJoEXE7CaM3pGtu8LgF-23" style="edgeStyle=orthogonalEdgeStyle;rounded=0;orthogonalLoop=1;jettySize=auto;html=1;entryX=0;entryY=0.25;entryDx=0;entryDy=0;" parent="1" source="yrJoEXE7CaM3pGtu8LgF-2" target="yrJoEXE7CaM3pGtu8LgF-18" edge="1">
          <mxGeometry relative="1" as="geometry">
            <mxPoint x="1530" y="300" as="targetPoint" />
            <Array as="points">
              <mxPoint x="1580" y="200" />
              <mxPoint x="1580" y="308" />
            </Array>
          </mxGeometry>
        </mxCell>
        <mxCell id="yrJoEXE7CaM3pGtu8LgF-2" value="&lt;span style=&quot;font-size: 20px;&quot;&gt;final&lt;/span&gt;" style="text;html=1;align=center;verticalAlign=middle;whiteSpace=wrap;rounded=0;strokeColor=default;" parent="1" vertex="1">
          <mxGeometry x="460" y="175" width="220" height="40" as="geometry" />
        </mxCell>
        <mxCell id="yrJoEXE7CaM3pGtu8LgF-7" style="edgeStyle=orthogonalEdgeStyle;rounded=0;orthogonalLoop=1;jettySize=auto;html=1;entryX=0;entryY=0.5;entryDx=0;entryDy=0;" parent="1" source="yrJoEXE7CaM3pGtu8LgF-8" edge="1">
          <mxGeometry relative="1" as="geometry">
            <mxPoint x="1600" y="335" as="targetPoint" />
          </mxGeometry>
        </mxCell>
        <mxCell id="EroMJwhKFGmw-tT6Kfco-17" style="edgeStyle=orthogonalEdgeStyle;rounded=0;orthogonalLoop=1;jettySize=auto;html=1;entryX=1;entryY=0.5;entryDx=0;entryDy=0;" parent="1" source="yrJoEXE7CaM3pGtu8LgF-8" target="EroMJwhKFGmw-tT6Kfco-14" edge="1">
          <mxGeometry relative="1" as="geometry">
            <Array as="points">
              <mxPoint x="1280" y="910" />
            </Array>
          </mxGeometry>
        </mxCell>
        <mxCell id="yrJoEXE7CaM3pGtu8LgF-8" value="" style="rounded=0;whiteSpace=wrap;html=1;fillColor=#e1d5e7;strokeColor=#9673a6;" parent="1" vertex="1">
          <mxGeometry x="1220" y="280" width="240" height="110" as="geometry" />
        </mxCell>
        <mxCell id="yrJoEXE7CaM3pGtu8LgF-9" value="" style="endArrow=none;html=1;rounded=0;entryX=0.5;entryY=0;entryDx=0;entryDy=0;exitX=0.5;exitY=1;exitDx=0;exitDy=0;fillColor=#e1d5e7;strokeColor=#9673a6;" parent="1" source="yrJoEXE7CaM3pGtu8LgF-8" target="yrJoEXE7CaM3pGtu8LgF-8" edge="1">
          <mxGeometry width="50" height="50" relative="1" as="geometry">
            <mxPoint x="1320" y="360" as="sourcePoint" />
            <mxPoint x="1370" y="310" as="targetPoint" />
          </mxGeometry>
        </mxCell>
        <mxCell id="yrJoEXE7CaM3pGtu8LgF-10" value="&lt;font style=&quot;font-size: 20px;&quot;&gt;siguiente&lt;/font&gt;" style="text;html=1;align=center;verticalAlign=middle;whiteSpace=wrap;rounded=0;fillColor=#e1d5e7;strokeColor=#9673a6;" parent="1" vertex="1">
          <mxGeometry x="1360" y="320" width="80" height="30" as="geometry" />
        </mxCell>
        <mxCell id="yrJoEXE7CaM3pGtu8LgF-11" value="" style="rounded=0;whiteSpace=wrap;html=1;fillColor=#e1d5e7;strokeColor=#9673a6;" parent="1" vertex="1">
          <mxGeometry x="1200" y="280" width="20" height="110" as="geometry" />
        </mxCell>
        <mxCell id="yrJoEXE7CaM3pGtu8LgF-12" value="&lt;span style=&quot;font-size: 20px;&quot;&gt;Nodo&lt;/span&gt;" style="rounded=0;whiteSpace=wrap;html=1;fillColor=#e1d5e7;strokeColor=#9673a6;" parent="1" vertex="1">
          <mxGeometry x="1200" y="240" width="260" height="40" as="geometry" />
        </mxCell>
        <mxCell id="yrJoEXE7CaM3pGtu8LgF-13" value="&lt;span style=&quot;font-size: 20px;&quot;&gt;direcciÃ³n&lt;/span&gt;&lt;div&gt;&lt;span style=&quot;font-size: 20px;&quot;&gt;dato&lt;/span&gt;&lt;/div&gt;" style="rounded=0;whiteSpace=wrap;html=1;fillColor=#e1d5e7;strokeColor=#9673a6;" parent="1" vertex="1">
          <mxGeometry x="1220" y="280" width="120" height="110" as="geometry" />
        </mxCell>
        <mxCell id="yrJoEXE7CaM3pGtu8LgF-15" value="" style="rounded=0;whiteSpace=wrap;html=1;" parent="1" vertex="1">
          <mxGeometry x="1620" y="280" width="240" height="110" as="geometry" />
        </mxCell>
        <mxCell id="yrJoEXE7CaM3pGtu8LgF-16" value="" style="endArrow=none;html=1;rounded=0;entryX=0.5;entryY=0;entryDx=0;entryDy=0;exitX=0.5;exitY=1;exitDx=0;exitDy=0;" parent="1" source="yrJoEXE7CaM3pGtu8LgF-15" target="yrJoEXE7CaM3pGtu8LgF-15" edge="1">
          <mxGeometry width="50" height="50" relative="1" as="geometry">
            <mxPoint x="1720" y="360" as="sourcePoint" />
            <mxPoint x="1770" y="310" as="targetPoint" />
          </mxGeometry>
        </mxCell>
        <mxCell id="yrJoEXE7CaM3pGtu8LgF-17" value="&lt;font style=&quot;font-size: 20px;&quot;&gt;siguiente&lt;/font&gt;" style="text;html=1;align=center;verticalAlign=middle;whiteSpace=wrap;rounded=0;" parent="1" vertex="1">
          <mxGeometry x="1760" y="320" width="80" height="30" as="geometry" />
        </mxCell>
        <mxCell id="yrJoEXE7CaM3pGtu8LgF-18" value="" style="rounded=0;whiteSpace=wrap;html=1;" parent="1" vertex="1">
          <mxGeometry x="1600" y="280" width="20" height="110" as="geometry" />
        </mxCell>
        <mxCell id="yrJoEXE7CaM3pGtu8LgF-19" value="&lt;span style=&quot;font-size: 20px;&quot;&gt;Nodo&lt;/span&gt;" style="rounded=0;whiteSpace=wrap;html=1;" parent="1" vertex="1">
          <mxGeometry x="1600" y="240" width="260" height="40" as="geometry" />
        </mxCell>
        <mxCell id="EroMJwhKFGmw-tT6Kfco-18" style="edgeStyle=orthogonalEdgeStyle;rounded=0;orthogonalLoop=1;jettySize=auto;html=1;entryX=1;entryY=0.5;entryDx=0;entryDy=0;" parent="1" source="yrJoEXE7CaM3pGtu8LgF-20" target="EroMJwhKFGmw-tT6Kfco-13" edge="1">
          <mxGeometry relative="1" as="geometry">
            <Array as="points">
              <mxPoint x="1690" y="990" />
            </Array>
          </mxGeometry>
        </mxCell>
        <mxCell id="yrJoEXE7CaM3pGtu8LgF-20" value="&lt;span style=&quot;font-size: 20px;&quot;&gt;direcciÃ³n&lt;/span&gt;&lt;div&gt;&lt;span style=&quot;font-size: 20px;&quot;&gt;dato&lt;/span&gt;&lt;/div&gt;" style="rounded=0;whiteSpace=wrap;html=1;" parent="1" vertex="1">
          <mxGeometry x="1620" y="280" width="120" height="110" as="geometry" />
        </mxCell>
        <mxCell id="EroMJwhKFGmw-tT6Kfco-3" style="edgeStyle=orthogonalEdgeStyle;rounded=0;orthogonalLoop=1;jettySize=auto;html=1;" parent="1" source="EroMJwhKFGmw-tT6Kfco-2" target="kgj0ZtWSBMvPHDnNzbXX-45" edge="1">
          <mxGeometry relative="1" as="geometry" />
        </mxCell>
        <mxCell id="EroMJwhKFGmw-tT6Kfco-2" value="&lt;span style=&quot;font-size: 20px;&quot;&gt;DirecciÃ³n&lt;/span&gt;&lt;div&gt;&lt;span style=&quot;font-size: 20px;&quot;&gt;pokemon&lt;/span&gt;&lt;/div&gt;" style="rounded=0;whiteSpace=wrap;html=1;" parent="1" vertex="1">
          <mxGeometry x="120" y="800" width="120" height="60" as="geometry" />
        </mxCell>
        <mxCell id="EroMJwhKFGmw-tT6Kfco-7" style="edgeStyle=orthogonalEdgeStyle;rounded=0;orthogonalLoop=1;jettySize=auto;html=1;entryX=1;entryY=1;entryDx=0;entryDy=0;" parent="1" source="EroMJwhKFGmw-tT6Kfco-5" target="yrJoEXE7CaM3pGtu8LgF-1" edge="1">
          <mxGeometry relative="1" as="geometry" />
        </mxCell>
        <mxCell id="EroMJwhKFGmw-tT6Kfco-5" value="&lt;span style=&quot;font-size: 20px;&quot;&gt;Nodo a borrar&lt;/span&gt;" style="rounded=0;whiteSpace=wrap;html=1;fillColor=#f8cecc;strokeColor=#b85450;" parent="1" vertex="1">
          <mxGeometry x="120" y="490" width="120" height="60" as="geometry" />
        </mxCell>
        <mxCell id="EroMJwhKFGmw-tT6Kfco-8" style="edgeStyle=orthogonalEdgeStyle;rounded=0;orthogonalLoop=1;jettySize=auto;html=1;entryX=0.5;entryY=1;entryDx=0;entryDy=0;" parent="1" source="EroMJwhKFGmw-tT6Kfco-6" target="yrJoEXE7CaM3pGtu8LgF-8" edge="1">
          <mxGeometry relative="1" as="geometry" />
        </mxCell>
        <mxCell id="EroMJwhKFGmw-tT6Kfco-6" value="&lt;span style=&quot;font-size: 20px;&quot;&gt;Siguiente&lt;/span&gt;" style="rounded=0;whiteSpace=wrap;html=1;fillColor=#e1d5e7;strokeColor=#9673a6;" parent="1" vertex="1">
          <mxGeometry x="120" y="610" width="120" height="60" as="geometry" />
        </mxCell>
        <mxCell id="EroMJwhKFGmw-tT6Kfco-9" value="&lt;font style=&quot;font-size: 22px;&quot;&gt;(2)&lt;/font&gt;" style="text;html=1;align=center;verticalAlign=middle;whiteSpace=wrap;rounded=0;" parent="1" vertex="1">
          <mxGeometry x="740" y="390" width="60" height="30" as="geometry" />
        </mxCell>
        <mxCell id="EroMJwhKFGmw-tT6Kfco-10" value="&lt;font style=&quot;font-size: 22px;&quot;&gt;(1)&lt;/font&gt;" style="text;html=1;align=center;verticalAlign=middle;whiteSpace=wrap;rounded=0;" parent="1" vertex="1">
          <mxGeometry x="700" y="780" width="60" height="30" as="geometry" />
        </mxCell>
        <mxCell id="EroMJwhKFGmw-tT6Kfco-15" style="edgeStyle=orthogonalEdgeStyle;rounded=0;orthogonalLoop=1;jettySize=auto;html=1;entryX=0;entryY=0.5;entryDx=0;entryDy=0;" parent="1" source="EroMJwhKFGmw-tT6Kfco-11" target="EroMJwhKFGmw-tT6Kfco-14" edge="1">
          <mxGeometry relative="1" as="geometry" />
        </mxCell>
        <mxCell id="EroMJwhKFGmw-tT6Kfco-11" value="&lt;span style=&quot;font-size: 20px;&quot;&gt;...&lt;/span&gt;" style="rounded=0;whiteSpace=wrap;html=1;" parent="1" vertex="1">
          <mxGeometry x="120" y="880" width="120" height="60" as="geometry" />
        </mxCell>
        <mxCell id="EroMJwhKFGmw-tT6Kfco-16" style="edgeStyle=orthogonalEdgeStyle;rounded=0;orthogonalLoop=1;jettySize=auto;html=1;" parent="1" source="EroMJwhKFGmw-tT6Kfco-12" target="EroMJwhKFGmw-tT6Kfco-13" edge="1">
          <mxGeometry relative="1" as="geometry" />
        </mxCell>
        <mxCell id="EroMJwhKFGmw-tT6Kfco-12" value="&lt;span style=&quot;font-size: 20px;&quot;&gt;...&lt;/span&gt;" style="rounded=0;whiteSpace=wrap;html=1;" parent="1" vertex="1">
          <mxGeometry x="120" y="960" width="120" height="60" as="geometry" />
        </mxCell>
        <mxCell id="EroMJwhKFGmw-tT6Kfco-13" value="&lt;font style=&quot;font-size: 20px;&quot;&gt;Datos pokemon&lt;/font&gt;" style="rounded=0;whiteSpace=wrap;html=1;" parent="1" vertex="1">
          <mxGeometry x="560" y="975" width="160" height="30" as="geometry" />
        </mxCell>
        <mxCell id="EroMJwhKFGmw-tT6Kfco-14" value="&lt;font style=&quot;font-size: 20px;&quot;&gt;Datos pokemon&lt;/font&gt;" style="rounded=0;whiteSpace=wrap;html=1;" parent="1" vertex="1">
          <mxGeometry x="560" y="895" width="160" height="30" as="geometry" />
        </mxCell>
      </root>
    </mxGraphModel>
  </diagram>
</mxfile>
